<?xml version="1.0" standalone="no"?><!DOCTYPE svg PUBLIC "-//W3C//DTD SVG 1.1//EN" "http://www.w3.org/Graphics/SVG/1.1/DTD/svg11.dtd"><svg class="icon" width="200px" height="200.00px" viewBox="0 0 1024 1024" version="1.1" xmlns="http://www.w3.org/2000/svg"><path d="M992 512A480 480 0 1 1 512 32a480 480 0 0 1 480 480zM512 96a416 416 0 1 0 416 416A416 416 0 0 0 512 96z" fill="#5866D0" /><path d="M672 352v64H352v-64h320z m0 192v64H352v-64h320zM288 352h64v288H288v-288z m384 0h64v288h-64v-288z" fill="#F17254" /><path d="M480 224h64v576h-64z" fill="#F17254" /></svg>