<?xml version="1.0" standalone="no"?><!DOCTYPE svg PUBLIC "-//W3C//DTD SVG 1.1//EN" "http://www.w3.org/Graphics/SVG/1.1/DTD/svg11.dtd"><svg class="icon" width="200px" height="200.00px" viewBox="0 0 1024 1024" version="1.1" xmlns="http://www.w3.org/2000/svg"><path d="M992 512A480 480 0 1 1 512 32a480 480 0 0 1 480 480zM512 96a416 416 0 1 0 416 416A416 416 0 0 0 512 96z" fill="#5866D0" /><path d="M250.944 683.808V340.192H505.6v58.112h-185.28v76.16h172.48v57.888h-172.48v93.568h192v57.888H250.944z m522.112 0H707.2V556.8a196.32 196.32 0 0 0-4.224-52.16 36.608 36.608 0 0 0-13.696-18.4 39.232 39.232 0 0 0-22.848-6.56 52.864 52.864 0 0 0-30.72 9.376 47.232 47.232 0 0 0-18.624 24.832 214.4 214.4 0 0 0-5.024 57.184v112.736h-65.888V434.88h61.184v36.576a101.984 101.984 0 0 1 121.888-34.336 67.2 67.2 0 0 1 27.296 20.032 72.896 72.896 0 0 1 12.8 27.648 206.304 206.304 0 0 1 3.648 44.288v154.688z" fill="#F17254" /></svg>